********************************************************************************
 
Taken 2  2012  UNRATED Extended Cut 1080p x264 - alrmothe

********************************************************************************

TiTLE: Taken 2
YEAR:2012
GENRE : Action | Crime | Thriller 
imdb URL :http://www.imdb.com/title/tt1397280/
Format: Matroska
Format version: Version 4 / Version 2
File size: 5.57 GiB
Duration: 1h 38mn
Overall bit rate: 8 117 Kbps
Encoded date: UTC 2010-02-22 21:41:31
Sub: English, English (oreign Parts), Arabic, swedish, Brazillian portuguese
Romanian, malay, indonesian, vietnamese,Danish
****************************

Video
Format: AVC
Format/Info : Advanced Video Codec
Format profile: High@L5.0
Format settings, CABAC: Yes
Format settings, ReFrames: 5 frames
Muxing mode: Header stripping
Codec ID: V_MPEG4/ISO/AVC
Bit rate: 6 614 Kbps
Width: 1 920 pixels
Height: 800 pixels
Display aspect ratio: 2.40:1
Frame rate mode: Constant
Frame rate: 23.976 fps
Color space: YUV
Chroma subsampling: 4:2:0
Bit depth: 8 bits
Scan type: Progressive
Bits/(Pixel*Frame): 0.180
Stream size: 4.43 GiB(79%)
Title: Taken 2  2012  UNRATED Extended Cut 1080p x264 - alrmothe


Audio
Format: DTS
Format/Info : Digital Theater Systems
Mode: 16
Format settings, Endianness: Big
Muxing mode : Header stripping
Codec ID: A_DTS
Bit rate mode: Constant
Bit rate : 1 509 Kbps
Channel(s): 6 channels
Channel positions: Front: L C R, Side: L R, LFE
Sampling rate : 48.0 KHz
Bit depth: 24 bits
Compression mode: Lossy
Stream size: 1.04 GiB (19%)
Language: English
******************************************************************************

Screenshots
 
http://img267.imageshack.us/img267/4015/48699855.png 
http://img543.imageshack.us/img543/1417/50002212.png 
http://img255.imageshack.us/img255/1728/28202617.png 
http://img690.imageshack.us/img690/5605/74939805.png 
http://img9.imageshack.us/img9/8452/35909361.png 
http://img10.imageshack.us/img10/8263/46326411.png 
http://img685.imageshack.us/img685/9015/66825342.png

Code:

 
http://121.14.98.151:9090/announce 
http://tracker.ex.ua/announce 
http://tracker.torrentbay.to:6969/announce 
http://exodus.desync.com:6969/announce 
http://94.228.192.98/announce
udp://tracker.istole.it:80/announce


